# This file uses centimeters as units for non-parametric coordinates.

mtllib Labtop.mtl
g default
v -0.262074 0.002175 0.262076
v -0.270478 0.010579 0.270480
v 0.219735 0.002175 0.262076
v 0.219735 0.010579 0.270480
v -0.270478 0.027390 0.270480
v -0.262074 0.035794 0.262076
v 0.226748 0.027390 0.270480
v -0.262074 0.035794 -0.262076
v -0.270478 0.027390 -0.270480
v 0.226748 0.027390 -0.270480
v -0.270478 0.010579 -0.270480
v -0.262074 0.002175 -0.262076
v 0.219735 0.002175 -0.262076
v 0.219735 0.010579 -0.270480
v 0.262078 0.002175 0.262076
v 0.270481 0.010579 0.262076
v 0.262078 0.010579 0.270480
v 0.262078 0.036553 0.270480
v 0.270481 0.035794 0.262076
v 0.270481 0.035794 -0.262076
v 0.262078 0.036553 -0.270480
v 0.262078 0.010579 -0.270480
v 0.270481 0.010579 -0.262076
v 0.262078 0.002175 -0.262076
v 0.300477 0.478894 -0.262007
v 0.310100 0.487229 -0.270480
v 0.300609 0.479616 0.262741
v 0.310100 0.487229 0.270480
v 0.343867 0.487229 0.270480
v 0.351079 0.478104 0.261203
v 0.351079 0.478104 -0.261203
v 0.343867 0.487229 -0.270480
v 0.210752 0.035794 0.262076
v 0.223242 0.031592 0.266277
v 0.221346 0.044632 0.262089
v 0.221346 0.044632 -0.262074
v 0.223242 0.031592 -0.266277
v 0.210752 0.035794 -0.262076
vt 0.371116 0.000001
vt 0.125000 0.062495
vt 0.128884 0.000001
vt 0.375000 1.000000
vt 0.378884 0.996116
vt 0.601549 1.000000
vt 0.601549 0.000001
vt 0.371116 0.250000
vt 0.128884 0.250000
vt 0.625000 0.996114
vt 0.621116 0.996116
vt 0.621116 0.753884
vt 0.625000 0.753884
vt 0.628884 0.062495
vt 0.628884 0.250000
vt 0.625000 0.496115
vt 0.625000 0.687504
vt 0.621116 0.687505
vt 0.625000 0.254287
vt 0.621116 0.062495
vt 0.621091 0.250000
vt 0.605294 0.250000
vt 0.620899 0.500000
vt 0.601549 0.687505
vt 0.604789 0.562494
vt 0.601549 0.996116
vt 0.871116 0.062495
vt 0.871116 0.250000
vt 0.375000 0.062495
vt 0.125000 0.187506
vt 0.378884 0.753884
vt 0.601549 0.753884
vt 0.375000 0.687505
vt 0.601549 0.062495
vt 0.375000 0.187506
vt 0.604789 0.187506
vt 0.620899 0.250000
vt 0.625000 0.253885
vt 0.625000 0.495713
vt 0.621077 0.500000
vt 0.605294 0.500000
vt 0.621116 0.000001
vt 0.604654 0.559728
vt 0.375000 0.562492
vt 0.378884 0.496116
vt 0.378884 0.253884
vt 0.601549 0.253576
vt 0.601549 0.496085
vt 0.597397 0.253885
vt 0.601549 0.496116
vt 0.603169 0.220697
vt 0.601549 0.253879
vt 0.603104 0.527977
vt 0.597397 0.496116
vn -0.707066 -0.707147 0.000000
vn -0.707066 -0.707147 0.000000
vn -0.707066 -0.707147 0.000000
vn -0.707066 -0.707147 0.000000
vn 0.000000 -0.707116 0.707098
vn 0.000000 -0.707116 0.707098
vn 0.000000 -0.707116 0.707098
vn 0.000000 -0.707116 0.707098
vn 0.000000 -0.707116 0.707098
vn 0.000000 -0.707116 0.707098
vn -0.707077 0.707137 0.000000
vn -0.707077 0.707137 0.000000
vn -0.707077 0.707137 0.000000
vn -0.707077 0.707137 0.000000
vn 0.000000 0.707105 0.707109
vn 0.000000 0.707105 0.707109
vn 0.000000 0.707105 0.707109
vn 0.000000 0.707105 0.707109
vn 0.000000 0.707105 0.707109
vn 0.000000 0.707105 -0.707109
vn 0.000000 0.707105 -0.707109
vn 0.000000 0.707105 -0.707109
vn 0.000000 0.707105 -0.707109
vn 0.000000 0.707105 -0.707109
vn -0.706071 0.128365 -0.696410
vn -0.706071 0.128365 -0.696410
vn -0.706071 0.128365 -0.696410
vn -0.706071 0.128365 -0.696410
vn -0.706071 0.128365 -0.696410
vn 0.000000 -0.707116 -0.707098
vn 0.000000 -0.707116 -0.707098
vn 0.000000 -0.707116 -0.707098
vn 0.000000 -0.707116 -0.707098
vn 0.000000 -0.707116 -0.707098
vn 0.000000 -0.707116 -0.707098
vn 0.707153 -0.707061 0.000000
vn 0.707153 -0.707061 0.000000
vn 0.707153 -0.707061 0.000000
vn 0.707153 -0.707061 0.000000
vn 0.707161 0.000000 0.707052
vn 0.707161 0.000000 0.707052
vn 0.707592 -0.109811 0.698037
vn 0.706941 -0.125640 0.696024
vn 0.706835 -0.127856 0.695728
vn 0.706835 -0.127856 0.695728
vn 0.707592 -0.109811 -0.698037
vn 0.706941 -0.125640 -0.696024
vn 0.706835 -0.127856 -0.695728
vn 0.706835 -0.127856 -0.695728
vn 0.707161 0.000000 -0.707052
vn 0.707161 0.000000 -0.707052
vn -0.640665 0.767821 -0.000440
vn -0.640665 0.767821 -0.000440
vn -0.640665 0.767821 -0.000440
vn -0.640665 0.767821 -0.000440
vn 0.784580 0.620028 0.000000
vn 0.784580 0.620028 0.000000
vn 0.784580 0.620028 0.000000
vn 0.784580 0.620028 0.000000
vn 0.000000 0.000000 1.000000
vn 0.000000 0.000000 1.000000
vn 0.000000 0.000000 1.000000
vn 0.000000 0.000000 1.000000
vn 0.000000 1.000000 0.000000
vn 0.000000 1.000000 0.000000
vn 0.000000 1.000000 0.000000
vn 0.000000 1.000000 0.000000
vn 0.000000 0.000000 -1.000000
vn 0.000000 0.000000 -1.000000
vn 0.000000 0.000000 -1.000000
vn 0.000001 0.000000 -1.000000
vn 0.000000 -1.000000 0.000000
vn 0.000000 -1.000000 0.000000
vn 0.000000 -1.000000 0.000000
vn 0.000000 -1.000000 0.000000
vn 1.000000 0.000000 0.000000
vn 1.000000 0.000000 0.000000
vn 0.985466 -0.169871 0.000000
vn 0.985466 -0.169871 0.000000
vn -1.000000 0.000000 0.000000
vn -1.000000 0.000000 0.000000
vn -1.000000 0.000000 0.000000
vn -1.000000 0.000000 0.000000
vn 0.000000 -1.000000 0.000000
vn 0.000000 -1.000000 0.000000
vn 0.000000 0.000000 -1.000000
vn 0.000000 0.000000 -1.000000
vn 0.000000 1.000000 0.000000
vn 0.000000 1.000000 0.000000
vn 0.000000 1.000000 0.000000
vn 0.000000 1.000000 0.000000
vn 0.000000 0.000000 1.000000
vn 0.000000 0.000000 1.000000
vn -0.983801 0.179267 0.000001
vn -0.983801 0.179267 0.000001
vn -0.983801 0.179267 0.000001
vn -0.983801 0.179267 0.000001
vn 0.000000 0.000000 1.000000
vn 0.000000 0.000000 1.000000
vn 0.983800 -0.179268 0.000000
vn 0.983800 -0.179268 0.000000
vn 0.000000 0.000000 -1.000000
vn 0.000000 0.000000 -1.000000
vn 0.577406 -0.577329 0.577316
vn 0.577406 -0.577329 0.577316
vn 0.577406 -0.577329 0.577316
vn 0.577406 -0.577329 -0.577316
vn 0.577406 -0.577329 -0.577316
vn 0.577406 -0.577329 -0.577316
vn -0.690684 0.124997 0.712272
vn -0.690684 0.124997 0.712272
vn -0.690684 0.124997 0.712272
vn -0.690684 0.124997 0.712272
vn -0.690684 0.124997 0.712272
vn -0.640604 0.767872 0.000000
vn -0.640604 0.767872 0.000000
vn -0.640604 0.767872 0.000000
vn -0.640604 0.767872 0.000000
vn -0.224899 0.268175 0.936751
vn -0.224899 0.268175 0.936751
vn -0.224899 0.268175 0.936751
vn -0.224477 0.269221 -0.936552
vn -0.224478 0.269221 -0.936552
vn -0.224478 0.269221 -0.936552
s off
g PokemonCenter_Labtop
usemtl lambert10SG
f 1/1/1 2/29/2 11/2/3 12/3/4
s 1
f 2/4/5 1/5/6 3/26/7 4/6/8
f 4/34/8 3/7/7 15/42/9 17/20/10
s off
f 5/35/11 6/8/12 8/9/13 9/30/14
f 6/46/15 5/35/16 7/36/17 34/51/18 33/49/19
f 9/44/20 8/45/21 38/54/22 37/53/23 10/25/24
f 10/43/25 37/53/26 36/50/27 25/48/28 26/41/29
s 2
f 12/31/30 11/33/31 14/24/32 13/32/33
f 13/32/33 14/24/32 22/18/34 24/12/35
s off
f 16/10/36 15/11/37 24/12/38 23/13/39
s 3
f 17/20/40 16/14/41 19/15/42 18/21/43
f 18/21/43 19/38/42 30/19/44 29/37/45
s 4
f 20/16/46 21/40/47 32/23/48 31/39/49
f 21/40/47 20/16/46 23/17/50 22/18/51
s off
f 26/41/52 25/48/53 27/47/54 28/22/55
f 29/37/56 30/19/57 31/39/58 32/23/59
s 5
f 7/36/60 4/34/61 17/20/62 18/21/63
s off
f 26/41/64 28/22/65 29/37/66 32/23/67
s 6
f 14/24/68 10/25/69 21/40/70 22/18/71
s 7
f 3/26/72 13/32/73 24/12/74 15/11/75
s 8
f 16/14/76 23/27/77 20/28/78 19/15/79
s off
f 11/2/80 2/29/81 5/35/82 9/30/83
s 7
usemtl Pokemon_Center_Computer_0_RedSG
f 12/31/84 13/32/73 3/26/72 1/5/85
s 6
usemtl lambert10SG
f 9/44/86 10/25/69 14/24/68 11/33/87
s off
usemtl phong6SG
f 6/46/88 33/49/89 38/54/90 8/45/91
s 5
usemtl lambert10SG
f 2/29/92 4/34/61 7/36/60 5/35/93
s off
usemtl phong6SG
f 36/50/94 35/52/95 27/47/96 25/48/97
s 5
usemtl lambert10SG
f 7/36/60 18/21/63 29/37/98 28/22/99
s 8
usemtl Pokemon_Center_Computer_0_RedSG
f 19/38/79 20/16/78 31/39/100 30/19/101
s 6
usemtl lambert10SG
f 21/40/70 10/25/69 26/41/102 32/23/103
s off
f 15/42/104 16/14/105 17/20/106
f 22/18/107 23/17/108 24/12/109
f 35/52/110 34/51/111 7/36/112 28/22/113 27/47/114
f 33/49/115 35/52/116 36/50/117 38/54/118
f 33/49/119 34/51/120 35/52/121
f 36/50/122 37/53/123 38/54/124
